<?xml version="1.0" encoding="UTF-8"?>
<svg xmlns="http://www.w3.org/2000/svg" viewBox="0 0 1440 900" font-family="'Segoe UI', system-ui, -apple-system, sans-serif">
  <defs>
    <marker id="arr" viewBox="0 0 10 6" refX="9" refY="3" markerWidth="8" markerHeight="6" orient="auto">
      <path d="M0,0 L0,6 L10,3 z" fill="#4a6fa5"/>
    </marker>
    <marker id="arr-w" viewBox="0 0 10 6" refX="9" refY="3" markerWidth="8" markerHeight="6" orient="auto">
      <path d="M0,0 L0,6 L10,3 z" fill="white"/>
    </marker>
    <marker id="arr-gray" viewBox="0 0 10 6" refX="9" refY="3" markerWidth="8" markerHeight="6" orient="auto">
      <path d="M0,0 L0,6 L10,3 z" fill="#777"/>
    </marker>
    <marker id="arr-green" viewBox="0 0 10 6" refX="9" refY="3" markerWidth="8" markerHeight="6" orient="auto">
      <path d="M0,0 L0,6 L10,3 z" fill="#2d6a4f"/>
    </marker>
    <marker id="arr-orange" viewBox="0 0 10 6" refX="9" refY="3" markerWidth="8" markerHeight="6" orient="auto">
      <path d="M0,0 L0,6 L10,3 z" fill="#c9a92c"/>
    </marker>
  </defs>

  <!-- Background -->
  <rect width="1440" height="900" fill="#f4f5f8"/>

  <!-- Header -->
  <rect x="0" y="0" width="1440" height="60" fill="#1c2541"/>
  <text x="24" y="26" font-size="20" font-weight="700" fill="white">minimum_atomworks — Plugin Wave Scheduler</text>
  <text x="24" y="48" font-size="12" fill="#8899bb">How plugins are grouped, assigned to waves, and executed in parallel — showing CPU ‖ GPU concurrency</text>

  <!-- ─── STEP 1: Plugins configured ─────────────────────────────────── -->
  <rect x="16" y="72" width="248" height="484" rx="6" fill="white" stroke="#ccd3e0" stroke-width="1.5"/>
  <rect x="16" y="72" width="248" height="30" rx="6" fill="#334155"/>
  <rect x="16" y="88" width="248" height="14" fill="#334155"/>
  <text x="24" y="92" font-size="12" font-weight="700" fill="white" dominant-baseline="middle">① config.plugins list</text>
  <text x="24" y="116" font-size="10" fill="#555">User declares plugins in YAML order.</text>
  <text x="24" y="132" font-size="10" fill="#555">resolve_plugin_specs() instantiates each</text>
  <text x="24" y="148" font-size="10" fill="#555">and reads its scheduling attributes.</text>

  <!-- Plugin pills -->
  <rect x="28" y="162" width="220" height="28" rx="14" fill="#eef3fa" stroke="#1d3557" stroke-width="1.5"/>
  <text x="138" y="178" font-size="10.5" font-weight="600" fill="#1d3557" text-anchor="middle">identity   [cpu, batched]</text>

  <rect x="28" y="198" width="220" height="28" rx="14" fill="#eef3fa" stroke="#1d3557" stroke-width="1.5"/>
  <text x="138" y="214" font-size="10.5" font-weight="600" fill="#1d3557" text-anchor="middle">chain_stats   [cpu, batched]</text>

  <rect x="28" y="234" width="220" height="28" rx="14" fill="#eef3fa" stroke="#1d3557" stroke-width="1.5"/>
  <text x="138" y="250" font-size="10.5" font-weight="600" fill="#1d3557" text-anchor="middle">interface_contacts   [cpu]</text>

  <rect x="28" y="270" width="220" height="28" rx="14" fill="#eef3fa" stroke="#1d3557" stroke-width="1.5"/>
  <text x="138" y="286" font-size="10.5" font-weight="600" fill="#1d3557" text-anchor="middle">rosetta_interface   [cpu]</text>

  <rect x="28" y="306" width="220" height="28" rx="14" fill="#fff0d6" stroke="#c9a92c" stroke-width="1.5"/>
  <text x="138" y="322" font-size="10.5" font-weight="600" fill="#7a5c00" text-anchor="middle">abepitope_score   [gpu]</text>

  <rect x="28" y="342" width="220" height="28" rx="14" fill="#fff0d6" stroke="#c9a92c" stroke-width="1.5"/>
  <text x="138" y="358" font-size="10.5" font-weight="600" fill="#7a5c00" text-anchor="middle">esm_if1_score   [gpu]</text>

  <rect x="28" y="378" width="220" height="28" rx="14" fill="#fff0d6" stroke="#c9a92c" stroke-width="1.5"/>
  <text x="138" y="394" font-size="10.5" font-weight="600" fill="#7a5c00" text-anchor="middle">ablang2_score   [gpu]</text>

  <rect x="28" y="414" width="220" height="28" rx="14" fill="#eef3fa" stroke="#1d3557" stroke-width="1.5"/>
  <text x="138" y="430" font-size="10.5" font-weight="600" fill="#1d3557" text-anchor="middle">role_sequences   [cpu]</text>
  <text x="138" y="444" font-size="9" fill="#888" text-anchor="middle">requires: identity</text>

  <!-- Legend tags -->
  <rect x="28" y="462" width="18" height="18" rx="9" fill="#eef3fa" stroke="#1d3557" stroke-width="1.5"/>
  <text x="52" y="474" font-size="9.5" fill="#555" dominant-baseline="middle">cpu  worker_pool</text>
  <rect x="28" y="484" width="18" height="18" rx="9" fill="#fff0d6" stroke="#c9a92c" stroke-width="1.5"/>
  <text x="52" y="496" font-size="9.5" fill="#555" dominant-baseline="middle">gpu  worker_pool</text>
  <text x="28" y="516" font-size="9" fill="#888">Attribute set by .scheduling() or</text>
  <text x="28" y="530" font-size="9" fill="#888">plugin.worker_pool class attribute.</text>

  <!-- ─── STEP 2: DAG + group assignment ─────────────────────────────── -->
  <line x1="265" y1="312" x2="280" y2="312" stroke="#4a6fa5" stroke-width="1.5" marker-end="url(#arr)"/>
  <rect x="280" y="72" width="340" height="484" rx="6" fill="white" stroke="#ccd3e0" stroke-width="1.5"/>
  <rect x="280" y="72" width="340" height="30" rx="6" fill="#334155"/>
  <rect x="280" y="88" width="340" height="14" fill="#334155"/>
  <text x="290" y="92" font-size="12" font-weight="700" fill="white" dominant-baseline="middle">② Group assignment  (_schedule.py)</text>
  <text x="290" y="118" font-size="10" fill="#555">plan_plugin_execution() walks the dependency DAG</text>
  <text x="290" y="134" font-size="10" fill="#555">(requires attr) topologically, then greedily merges</text>
  <text x="290" y="150" font-size="10" fill="#555">consecutive compatible specs into groups.</text>

  <!-- Group A -->
  <rect x="292" y="164" width="316" height="66" rx="4" fill="#eef3fa" stroke="#1d3557" stroke-width="1.5"/>
  <text x="300" y="180" font-size="10.5" font-weight="700" fill="#1d3557">Group 0  [cpu · batched]</text>
  <text x="300" y="198" font-size="10" fill="#1d3557">identity,  chain_stats</text>
  <text x="300" y="214" font-size="9.5" fill="#888">same worker_pool + execution_mode → merged</text>
  <text x="300" y="228" font-size="9.5" fill="#888">depends_on: none</text>

  <!-- Group B -->
  <rect x="292" y="240" width="316" height="66" rx="4" fill="#eef3fa" stroke="#1d3557" stroke-width="1.5"/>
  <text x="300" y="256" font-size="10.5" font-weight="700" fill="#1d3557">Group 1  [cpu · batched]</text>
  <text x="300" y="274" font-size="10" fill="#1d3557">interface_contacts,  rosetta_interface</text>
  <text x="300" y="290" font-size="9.5" fill="#888">both cpu, same execution_mode → merged</text>
  <text x="300" y="304" font-size="9.5" fill="#888">depends_on: none</text>

  <!-- Group C — GPU -->
  <rect x="292" y="316" width="316" height="66" rx="4" fill="#fff0d6" stroke="#c9a92c" stroke-width="1.5"/>
  <text x="300" y="332" font-size="10.5" font-weight="700" fill="#7a5c00">Group 2  [gpu · batched]</text>
  <text x="300" y="350" font-size="10" fill="#7a5c00">abepitope_score,  esm_if1_score,  ablang2_score</text>
  <text x="300" y="366" font-size="9.5" fill="#888">all gpu → merged; each worker gets one GPU device</text>
  <text x="300" y="380" font-size="9.5" fill="#888">depends_on: Group 1 (interface + structure data)</text>

  <!-- Group D -->
  <rect x="292" y="392" width="316" height="66" rx="4" fill="#eef3fa" stroke="#1d3557" stroke-width="1.5"/>
  <text x="300" y="408" font-size="10.5" font-weight="700" fill="#1d3557">Group 3  [cpu · batched]</text>
  <text x="300" y="426" font-size="10" fill="#1d3557">role_sequences,  antibody_cdr_sequences</text>
  <text x="300" y="442" font-size="9.5" fill="#888">role_sequences requires: identity (Group 0)</text>
  <text x="300" y="456" font-size="9.5" fill="#888">depends_on: Group 0</text>

  <!-- placeholder spacer -->
  <text x="450" y="490" font-size="9.5" fill="#ccc" text-anchor="middle"> </text>

  <!-- ─── STEP 3: Wave assignment ─────────────────────────────────────── -->
  <line x1="621" y1="312" x2="636" y2="312" stroke="#4a6fa5" stroke-width="1.5" marker-end="url(#arr)"/>
  <rect x="636" y="72" width="340" height="484" rx="6" fill="white" stroke="#ccd3e0" stroke-width="1.5"/>
  <rect x="636" y="72" width="340" height="30" rx="6" fill="#334155"/>
  <rect x="636" y="88" width="340" height="14" fill="#334155"/>
  <text x="646" y="92" font-size="12" font-weight="700" fill="white" dominant-baseline="middle">③ Wave assignment  (_schedule.py)</text>
  <text x="646" y="118" font-size="10" fill="#555">plan_plugin_groups() assigns each group to a wave</text>
  <text x="646" y="134" font-size="10" fill="#555">subject to: (a) all dependencies in earlier waves,</text>
  <text x="646" y="150" font-size="10" fill="#555">(b) at most one pool per wave per slot.</text>

  <!-- Wave 0 -->
  <rect x="648" y="164" width="316" height="100" rx="4" fill="#f0fdf4" stroke="#2d6a4f" stroke-width="2"/>
  <rect x="648" y="164" width="316" height="24" rx="4" fill="#2d6a4f"/>
  <rect x="648" y="178" width="316" height="10" fill="#2d6a4f"/>
  <text x="810" y="180" font-size="11" font-weight="700" fill="white" text-anchor="middle" dominant-baseline="middle">Wave 0</text>
  <!-- group boxes inside wave 0 -->
  <rect x="660" y="196" width="132" height="60" rx="3" fill="#eef3fa" stroke="#1d3557" stroke-width="1"/>
  <text x="726" y="215" font-size="9.5" font-weight="600" fill="#1d3557" text-anchor="middle">Group 0  [cpu]</text>
  <text x="726" y="231" font-size="9" fill="#555" text-anchor="middle">identity</text>
  <text x="726" y="246" font-size="9" fill="#555" text-anchor="middle">chain_stats</text>
  <rect x="804" y="196" width="148" height="60" rx="3" fill="#eef3fa" stroke="#1d3557" stroke-width="1"/>
  <text x="878" y="215" font-size="9.5" font-weight="600" fill="#1d3557" text-anchor="middle">Group 1  [cpu]</text>
  <text x="878" y="231" font-size="9" fill="#555" text-anchor="middle">interface_contacts</text>
  <text x="878" y="246" font-size="9" fill="#555" text-anchor="middle">rosetta_interface</text>

  <!-- Wave 1 -->
  <rect x="648" y="278" width="316" height="120" rx="4" fill="#f0fdf4" stroke="#2d6a4f" stroke-width="2"/>
  <rect x="648" y="278" width="316" height="24" rx="4" fill="#2d6a4f"/>
  <rect x="648" y="292" width="316" height="10" fill="#2d6a4f"/>
  <text x="810" y="294" font-size="11" font-weight="700" fill="white" text-anchor="middle" dominant-baseline="middle">Wave 1</text>
  <rect x="660" y="312" width="280" height="76" rx="3" fill="#fff0d6" stroke="#c9a92c" stroke-width="1"/>
  <text x="800" y="330" font-size="9.5" font-weight="600" fill="#7a5c00" text-anchor="middle">Group 2  [gpu]</text>
  <text x="800" y="347" font-size="9" fill="#7a5c00" text-anchor="middle">abepitope_score</text>
  <text x="800" y="362" font-size="9" fill="#7a5c00" text-anchor="middle">esm_if1_score</text>
  <text x="800" y="377" font-size="9" fill="#7a5c00" text-anchor="middle">ablang2_score</text>
  <text x="810" y="408" font-size="9" fill="#888" text-anchor="middle">gpu-only wave: waits for Group 1 (interface data needed)</text>

  <!-- Wave 2 -->
  <rect x="648" y="414" width="316" height="76" rx="4" fill="#f0fdf4" stroke="#2d6a4f" stroke-width="2"/>
  <rect x="648" y="414" width="316" height="24" rx="4" fill="#2d6a4f"/>
  <rect x="648" y="428" width="316" height="10" fill="#2d6a4f"/>
  <text x="810" y="430" font-size="11" font-weight="700" fill="white" text-anchor="middle" dominant-baseline="middle">Wave 2</text>
  <rect x="660" y="448" width="290" height="36" rx="3" fill="#eef3fa" stroke="#1d3557" stroke-width="1"/>
  <text x="805" y="464" font-size="9.5" font-weight="600" fill="#1d3557" text-anchor="middle">Group 3  [cpu]</text>
  <text x="805" y="479" font-size="9" fill="#555" text-anchor="middle">role_sequences · antibody_cdr_sequences  (after Group 0)</text>

  <!-- wave labels -->
  <text x="810" y="510" font-size="9.5" fill="#888" text-anchor="middle">waves_from_groups() converts PlannedPluginGroup[] → list[Wave]</text>
  <text x="810" y="527" font-size="9.5" fill="#888" text-anchor="middle">Each wave is a list of groups that can run in parallel.</text>

  <!-- ─── STEP 4: Execution engine ────────────────────────────────────── -->
  <line x1="977" y1="312" x2="994" y2="312" stroke="#4a6fa5" stroke-width="1.5" marker-end="url(#arr)"/>
  <rect x="994" y="72" width="430" height="484" rx="6" fill="white" stroke="#ccd3e0" stroke-width="1.5"/>
  <rect x="994" y="72" width="430" height="30" rx="6" fill="#334155"/>
  <rect x="994" y="88" width="430" height="14" fill="#334155"/>
  <text x="1004" y="92" font-size="12" font-weight="700" fill="white" dominant-baseline="middle">④ Execution engine  (_execute.py)</text>
  <text x="1004" y="118" font-size="10" fill="#555">run_plugins() drives the wave loop. Each wave launches</text>
  <text x="1004" y="134" font-size="10" fill="#555">all its groups in parallel via a ThreadPoolExecutor</text>
  <text x="1004" y="150" font-size="10" fill="#555">(one thread per pool: cpu thread + gpu thread).</text>

  <!-- Wave 0 execution -->
  <rect x="1006" y="164" width="406" height="110" rx="4" fill="#f0fdf4" stroke="#2d6a4f" stroke-width="2"/>
  <rect x="1006" y="164" width="406" height="24" rx="4" fill="#2d6a4f"/>
  <rect x="1006" y="178" width="406" height="10" fill="#2d6a4f"/>
  <text x="1209" y="180" font-size="11" font-weight="700" fill="white" text-anchor="middle" dominant-baseline="middle">Wave 0  — two cpu groups run concurrently</text>
  <!-- cpu threads -->
  <rect x="1018" y="198" width="180" height="68" rx="4" fill="#dbeafe" stroke="#2563eb" stroke-width="1"/>
  <text x="1108" y="214" font-size="10" font-weight="700" fill="#1e40af" text-anchor="middle">CPU thread A</text>
  <text x="1108" y="230" font-size="9.5" fill="#1e40af" text-anchor="middle">process_or_thread_pool(</text>
  <text x="1108" y="244" font-size="9.5" fill="#1e40af" text-anchor="middle">  cpu_workers</text>
  <text x="1108" y="258" font-size="9.5" fill="#1e40af" text-anchor="middle">)  →  Group 0 (identity, chain_stats)</text>
  <rect x="1218" y="198" width="180" height="68" rx="4" fill="#dbeafe" stroke="#2563eb" stroke-width="1"/>
  <text x="1308" y="214" font-size="10" font-weight="700" fill="#1e40af" text-anchor="middle">CPU thread B</text>
  <text x="1308" y="230" font-size="9.5" fill="#1e40af" text-anchor="middle">process_or_thread_pool(</text>
  <text x="1308" y="244" font-size="9.5" fill="#1e40af" text-anchor="middle">  cpu_workers</text>
  <text x="1308" y="258" font-size="9.5" fill="#1e40af" text-anchor="middle">)  →  Group 1 (iface, rosetta)</text>
  <text x="1209" y="283" font-size="9" fill="#888" text-anchor="middle">Wave 0: both CPU groups run simultaneously (no GPU work needed yet)</text>

  <!-- Wave 1 execution -->
  <rect x="1006" y="288" width="406" height="112" rx="4" fill="#f0fdf4" stroke="#2d6a4f" stroke-width="2"/>
  <rect x="1006" y="288" width="406" height="24" rx="4" fill="#2d6a4f"/>
  <rect x="1006" y="302" width="406" height="10" fill="#2d6a4f"/>
  <text x="1209" y="304" font-size="11" font-weight="700" fill="white" text-anchor="middle" dominant-baseline="middle">Wave 1  — wait for Wave 0 first</text>
  <rect x="1018" y="322" width="380" height="68" rx="4" fill="#fff0d6" stroke="#c9a92c" stroke-width="1"/>
  <text x="1209" y="338" font-size="10" font-weight="700" fill="#7a5c00" text-anchor="middle">GPU thread  (one process per device slot)</text>
  <text x="1209" y="354" font-size="9.5" fill="#7a5c00" text-anchor="middle">Group 2: abepitope_score · esm_if1_score · ablang2_score</text>
  <text x="1209" y="370" font-size="9.5" fill="#7a5c00" text-anchor="middle">CUDA_VISIBLE_DEVICES set per worker via initializer</text>
  <text x="1209" y="408" font-size="9" fill="#888" text-anchor="middle">gpu-only wave — GPU workers saturated; CPU is idle this wave</text>

  <!-- Wave 2 execution -->
  <rect x="1006" y="418" width="406" height="70" rx="4" fill="#f0fdf4" stroke="#2d6a4f" stroke-width="2"/>
  <rect x="1006" y="418" width="406" height="24" rx="4" fill="#2d6a4f"/>
  <rect x="1006" y="432" width="406" height="10" fill="#2d6a4f"/>
  <text x="1209" y="434" font-size="11" font-weight="700" fill="white" text-anchor="middle" dominant-baseline="middle">Wave 2  — wait for Wave 1 first</text>
  <rect x="1018" y="452" width="380" height="30" rx="3" fill="#dbeafe" stroke="#2563eb" stroke-width="1"/>
  <text x="1209" y="470" font-size="9.5" font-weight="700" fill="#1e40af" text-anchor="middle">CPU thread — Group 3: role_sequences, antibody_cdr_sequences</text>

  <!-- process_or_thread_pool note -->
  <rect x="1006" y="500" width="406" height="48" rx="4" fill="#fffbf0" stroke="#c9a92c" stroke-width="1"/>
  <text x="1209" y="518" font-size="9.5" font-weight="700" fill="#7a5c00" text-anchor="middle">process_or_thread_pool  [runtime/_pool.py]</text>
  <text x="1209" y="535" font-size="9" fill="#888" text-anchor="middle">Each group's workers come from this context manager — prefers ProcessPool,</text>
  <text x="1209" y="548" font-size="9" fill="#888" text-anchor="middle">falls back to ThreadPool on PermissionError (containers, macOS sandbox)</text>

  <!-- ─── Bottom legend ──────────────────────────────────────────────── -->
  <rect x="16" y="568" width="1408" height="148" rx="6" fill="#1c2541" opacity="0.05" stroke="#1c2541" stroke-width="1.2"/>
  <text x="28" y="590" font-size="12" font-weight="700" fill="#1c2541">Key Rules the Scheduler Enforces</text>

  <rect x="28" y="600" width="326" height="104" rx="4" fill="white" stroke="#ccd3e0" stroke-width="1"/>
  <text x="38" y="618" font-size="10.5" font-weight="600" fill="#1d3557">Grouping rules  (plan_plugin_execution)</text>
  <text x="38" y="636" font-size="10" fill="#555">Two specs merge into one group only when:</text>
  <text x="38" y="652" font-size="10" fill="#555">  • same worker_pool, execution_mode, input_model, max_workers</text>
  <text x="38" y="668" font-size="10" fill="#555">  • the later spec doesn't require the earlier (no intra-group deps)</text>
  <text x="38" y="684" font-size="9.5" fill="#888">Topological order from the requires DAG is preserved.</text>
  <text x="38" y="698" font-size="9.5" fill="#888">Groups are executed as an atomic block with shared workers.</text>

  <rect x="370" y="600" width="326" height="104" rx="4" fill="white" stroke="#ccd3e0" stroke-width="1"/>
  <text x="380" y="618" font-size="10.5" font-weight="600" fill="#2d6a4f">Wave assignment rules  (plan_plugin_groups)</text>
  <text x="380" y="636" font-size="10" fill="#555">Group is placed in the lowest wave where:</text>
  <text x="380" y="652" font-size="10" fill="#555">  • all dependency groups are in earlier waves</text>
  <text x="380" y="668" font-size="10" fill="#555">  • its worker_pool slot is not already occupied in that wave</text>
  <text x="380" y="684" font-size="9.5" fill="#888">Result: CPU-only and GPU-only groups share a wave when independent.</text>
  <text x="380" y="698" font-size="9.5" fill="#888">A dependent group is pushed to the next wave automatically.</text>

  <rect x="712" y="600" width="326" height="104" rx="4" fill="white" stroke="#ccd3e0" stroke-width="1"/>
  <text x="722" y="618" font-size="10.5" font-weight="600" fill="#7a5c00">GPU device assignment</text>
  <text x="722" y="636" font-size="10" fill="#555">cfg.gpu_devices = ["0", "1"]  →  2 GPU slots</text>
  <text x="722" y="652" font-size="10" fill="#555">Each slot gets its own ProcessPoolExecutor(max_workers=1)</text>
  <text x="722" y="668" font-size="10" fill="#555">CUDA_VISIBLE_DEVICES set per worker via initializer.</text>
  <text x="722" y="684" font-size="9.5" fill="#888">gpu_devices_per_worker=1 enforced; each worker sees exactly one GPU.</text>
  <text x="722" y="698" font-size="9.5" fill="#888">Slot count = min(gpu_workers, len(gpu_devices) // gpu_per_worker).</text>

  <rect x="1054" y="600" width="358" height="104" rx="4" fill="white" stroke="#ccd3e0" stroke-width="1"/>
  <text x="1064" y="618" font-size="10.5" font-weight="600" fill="#1d3557">Wave-level concurrency model</text>
  <text x="1064" y="636" font-size="10" fill="#555">run_plugins() uses an outer ThreadPoolExecutor(max_workers=len(wave))</text>
  <text x="1064" y="652" font-size="10" fill="#555">to launch all groups in a wave simultaneously.</text>
  <text x="1064" y="668" font-size="10" fill="#555">Each thread calls _execute_plugin_group() for one group.</text>
  <text x="1064" y="684" font-size="9.5" fill="#888">Wave N+1 only starts after all futures in Wave N resolve.</text>
  <text x="1064" y="698" font-size="9.5" fill="#888">This is the ~minimum_atomworks parallelism narrative in one picture.</text>

  <!-- Footer -->
  <rect x="0" y="880" width="1440" height="20" fill="#1c2541"/>
  <text x="720" y="893" font-size="9.5" fill="#8899bb" text-anchor="middle">scheduling logic: core/_schedule.py  ·  execution engine: core/_execute.py  ·  pool fallback: runtime/_pool.py</text>
</svg>
