<svg xmlns="http://www.w3.org/2000/svg" viewBox="0 0 1700 1180" font-family="'Courier New', Courier, monospace">
  <defs>
    <marker id="arr" markerWidth="8" markerHeight="8" refX="6" refY="3" orient="auto">
      <path d="M0,0 L0,6 L8,3 z" fill="#555"/>
    </marker>
    <marker id="arr-blue" markerWidth="8" markerHeight="8" refX="6" refY="3" orient="auto">
      <path d="M0,0 L0,6 L8,3 z" fill="#2563eb"/>
    </marker>
    <marker id="arr-green" markerWidth="8" markerHeight="8" refX="6" refY="3" orient="auto">
      <path d="M0,0 L0,6 L8,3 z" fill="#16a34a"/>
    </marker>
    <marker id="arr-orange" markerWidth="8" markerHeight="8" refX="6" refY="3" orient="auto">
      <path d="M0,0 L0,6 L8,3 z" fill="#ea580c"/>
    </marker>
    <marker id="arr-purple" markerWidth="8" markerHeight="8" refX="6" refY="3" orient="auto">
      <path d="M0,0 L0,6 L8,3 z" fill="#7c3aed"/>
    </marker>
    <marker id="arr-gray" markerWidth="8" markerHeight="8" refX="6" refY="3" orient="auto">
      <path d="M0,0 L0,6 L8,3 z" fill="#6b7280"/>
    </marker>
  </defs>

  <!-- Background -->
  <rect width="1700" height="1180" fill="#f8fafc"/>

  <!-- Header -->
  <rect x="0" y="0" width="1700" height="54" fill="#1e293b"/>
  <text x="850" y="34" font-size="20" font-weight="bold" fill="white" text-anchor="middle" letter-spacing="1">minimum_atomworks — Runtime Execution Modes &amp; Flexibility</text>

  <!-- Legend -->
  <rect x="20" y="64" width="1660" height="32" fill="#f1f5f9" rx="4" stroke="#cbd5e1" stroke-width="1"/>
  <rect x="32" y="72" width="14" height="14" fill="#dbeafe" stroke="#2563eb" stroke-width="1.5" rx="2"/>
  <text x="52" y="83" font-size="11" fill="#1e40af">PREPARE</text>
  <rect x="130" y="72" width="14" height="14" fill="#dcfce7" stroke="#16a34a" stroke-width="1.5" rx="2"/>
  <text x="150" y="83" font-size="11" fill="#166534">EXECUTE</text>
  <rect x="228" y="72" width="14" height="14" fill="#ffedd5" stroke="#ea580c" stroke-width="1.5" rx="2"/>
  <text x="248" y="83" font-size="11" fill="#9a3412">MERGE</text>
  <rect x="316" y="72" width="14" height="14" fill="#ede9fe" stroke="#7c3aed" stroke-width="1.5" rx="2"/>
  <text x="336" y="83" font-size="11" fill="#5b21b6">DATASET ANALYSIS</text>
  <rect x="476" y="72" width="14" height="14" fill="#fef9c3" stroke="#ca8a04" stroke-width="1.5" rx="2"/>
  <text x="496" y="83" font-size="11" fill="#713f12">PLAN / SCHEDULE</text>
  <rect x="638" y="72" width="14" height="14" fill="#f3f4f6" stroke="#6b7280" stroke-width="1.5" rx="2"/>
  <text x="658" y="83" font-size="11" fill="#374151">optional / conditional</text>
  <text x="1680" y="83" font-size="10" fill="#64748b" text-anchor="end">dashed border = optional step</text>

  <!-- ═══════════════════════════════════════════════════════════════════════ -->
  <!-- COLUMN 1: Simple Run -->
  <!-- ═══════════════════════════════════════════════════════════════════════ -->
  <rect x="18" y="106" width="510" height="26" fill="#1e293b" rx="4"/>
  <text x="273" y="124" font-size="13" font-weight="bold" fill="white" text-anchor="middle">① Simple Run   run_pipeline(cfg)</text>

  <!-- PREPARE block -->
  <rect x="18" y="138" width="510" height="310" fill="#dbeafe" stroke="#2563eb" stroke-width="1.5" rx="6"/>
  <text x="30" y="156" font-size="11" font-weight="bold" fill="#1e40af">prepare_outputs(cfg)</text>

  <!-- discover_inputs -->
  <rect x="30" y="162" width="486" height="28" fill="#eff6ff" stroke="#93c5fd" stroke-width="1" rx="3"/>
  <text x="38" y="180" font-size="10" fill="#1e3a8a">discover_inputs(input_dir)  →  list[*.pdb, *.cif]</text>

  <!-- checkpoint branch -->
  <rect x="30" y="197" width="486" height="20" fill="#bfdbfe" stroke="#60a5fa" stroke-width="1" rx="3"/>
  <text x="38" y="211" font-size="10" fill="#1e40af">checkpoint_enabled ?  _prepare_outputs_checkpointed  :  _prepare_outputs_buffered</text>

  <!-- for each structure -->
  <rect x="30" y="223" width="486" height="190" fill="#eff6ff" stroke="#93c5fd" stroke-width="1" rx="3"/>
  <text x="38" y="238" font-size="10" font-style="italic" fill="#374151">for source_path in discovered:</text>

  <rect x="44" y="244" width="458" height="22" fill="#dbeafe" stroke="#93c5fd" stroke-width="1" rx="2"/>
  <text x="52" y="259" font-size="10" fill="#1e3a8a">prepare_context(source_path, cfg)  →  Context(aa, chains, roles, config)</text>

  <rect x="44" y="271" width="458" height="22" fill="#dbeafe" stroke="#93c5fd" stroke-width="1" rx="2"/>
  <text x="52" y="286" font-size="10" fill="#1e3a8a">run QC units  (pdb_quality_control)  →  flag bad structures</text>

  <rect x="44" y="298" width="458" height="22" fill="#dbeafe" stroke="#93c5fd" stroke-width="1" rx="2"/>
  <text x="52" y="313" font-size="10" fill="#1e3a8a">run manipulation units  (pdb_manipulation, dataset_manipulation)</text>

  <rect x="44" y="325" width="458" height="22" fill="#dbeafe" stroke="#93c5fd" stroke-width="1" rx="2"/>
  <text x="52" y="340" font-size="10" fill="#1e3a8a">save_structure(prepared_path, ctx.aa)  →  _prepared/structures/</text>

  <rect x="44" y="352" width="458" height="22" fill="#dbeafe" stroke="#93c5fd" stroke-width="1" rx="2"/>
  <text x="52" y="367" font-size="10" fill="#1e3a8a">write  _prepared/pdb.parquet  +  manifest.parquet  +  bad_files.parquet</text>

  <!-- EXECUTE block -->
  <rect x="18" y="456" width="510" height="194" fill="#dcfce7" stroke="#16a34a" stroke-width="1.5" rx="6"/>
  <text x="30" y="474" font-size="11" font-weight="bold" fill="#166534">run_plugins(cfg, plugin_names)</text>

  <rect x="30" y="480" width="486" height="22" fill="#f0fdf4" stroke="#86efac" stroke-width="1" rx="3"/>
  <text x="38" y="495" font-size="10" fill="#14532d">load_prepared_manifest(out_dir)  →  path → prepared_path mapping</text>

  <rect x="30" y="507" width="486" height="22" fill="#f0fdf4" stroke="#86efac" stroke-width="1" rx="3"/>
  <text x="38" y="522" font-size="10" fill="#14532d">_plan_plugin_execution(specs)  →  ordered list of plugin specs to run</text>

  <rect x="30" y="534" width="486" height="90" fill="#f0fdf4" stroke="#86efac" stroke-width="1" rx="3"/>
  <text x="38" y="549" font-size="10" font-style="italic" fill="#374151">for group in execution_plan:</text>
  <rect x="44" y="554" width="458" height="22" fill="#dcfce7" stroke="#86efac" stroke-width="1" rx="2"/>
  <text x="52" y="569" font-size="10" fill="#14532d">prepare_context(source_path, prepared_path, cfg)  →  Context</text>
  <rect x="44" y="580" width="458" height="22" fill="#dcfce7" stroke="#86efac" stroke-width="1" rx="2"/>
  <text x="52" y="595" font-size="10" fill="#14532d">run_unit(ctx, plugin)  →  yield rows  →  _plugins/{name}/pdb.parquet</text>

  <!-- MERGE block -->
  <rect x="18" y="658" width="510" height="64" fill="#ffedd5" stroke="#ea580c" stroke-width="1.5" rx="6"/>
  <text x="30" y="676" font-size="11" font-weight="bold" fill="#9a3412">merge_outputs(cfg)</text>
  <rect x="30" y="682" width="486" height="34" fill="#fff7ed" stroke="#fed7aa" stroke-width="1" rx="3"/>
  <text x="38" y="696" font-size="10" fill="#7c2d12">read _prepared/pdb  +  each _plugins/{name}/pdb  →  LEFT JOIN on identity keys</text>
  <text x="38" y="710" font-size="10" fill="#7c2d12">write  out_dir/pdb.parquet  plugin_status.parquet  bad_files.parquet</text>

  <!-- DATASET ANALYSIS block (optional) -->
  <rect x="18" y="730" width="510" height="60" fill="#ede9fe" stroke="#7c3aed" stroke-width="1.5" stroke-dasharray="5,3" rx="6"/>
  <text x="30" y="748" font-size="11" font-weight="bold" fill="#5b21b6">analyze_dataset_outputs(out_dir)  [optional]</text>
  <rect x="30" y="754" width="486" height="30" fill="#f5f3ff" stroke="#c4b5fd" stroke-width="1" rx="3"/>
  <text x="38" y="767" font-size="10" fill="#4c1d95">runs dataset_calculation plugins: CDR entropy, interface summary, annotations…</text>
  <text x="38" y="781" font-size="10" fill="#4c1d95">reads merged pdb.parquet  →  writes  dataset.parquet</text>

  <!-- Arrows col 1 -->
  <line x1="273" y1="448" x2="273" y2="456" stroke="#16a34a" stroke-width="2" marker-end="url(#arr-green)"/>
  <line x1="273" y1="650" x2="273" y2="658" stroke="#ea580c" stroke-width="2" marker-end="url(#arr-orange)"/>
  <line x1="273" y1="722" x2="273" y2="730" stroke="#7c3aed" stroke-width="2" stroke-dasharray="4,3" marker-end="url(#arr-purple)"/>

  <!-- ═══════════════════════════════════════════════════════════════════════ -->
  <!-- COLUMN 2: Chunked Run (in-process) -->
  <!-- ═══════════════════════════════════════════════════════════════════════ -->
  <rect x="544" y="106" width="560" height="26" fill="#1e293b" rx="4"/>
  <text x="824" y="124" font-size="13" font-weight="bold" fill="white" text-anchor="middle">② Chunked Run   run_chunked_pipeline(cfg, chunk_size, workers)</text>

  <!-- PLAN block -->
  <rect x="544" y="138" width="560" height="86" fill="#fef9c3" stroke="#ca8a04" stroke-width="1.5" rx="6"/>
  <text x="556" y="156" font-size="11" font-weight="bold" fill="#713f12">Split &amp; Schedule</text>

  <rect x="556" y="162" width="536" height="22" fill="#fefce8" stroke="#fde68a" stroke-width="1" rx="3"/>
  <text x="564" y="177" font-size="10" fill="#713f12">discover_inputs(input_dir)  →  all *.pdb / *.cif  →  chunk_input_paths(paths, chunk_size)</text>

  <rect x="556" y="189" width="536" height="28" fill="#fefce8" stroke="#fde68a" stroke-width="1" rx="3"/>
  <text x="564" y="202" font-size="10" fill="#713f12">ProcessPoolExecutor(workers)  or  ThreadPoolExecutor  (PermissionError fallback)</text>
  <text x="564" y="214" font-size="10" fill="#713f12">prepare_chunk_input_dir(chunk_input_dir, paths)  →  symlink each file</text>

  <!-- parallel workers -->
  <rect x="544" y="232" width="560" height="268" fill="#f0f9ff" stroke="#0ea5e9" stroke-width="1.5" rx="6"/>
  <text x="556" y="250" font-size="11" font-weight="bold" fill="#0369a1">Parallel Workers  (1 … N)</text>

  <!-- worker box A -->
  <rect x="556" y="256" width="256" height="230" fill="#e0f2fe" stroke="#38bdf8" stroke-width="1" rx="4"/>
  <text x="684" y="273" font-size="10" font-weight="bold" fill="#0369a1" text-anchor="middle">chunk_001</text>

  <rect x="566" y="278" width="236" height="22" fill="#dbeafe" stroke="#93c5fd" stroke-width="1" rx="2"/>
  <text x="574" y="293" font-size="10" fill="#1e3a8a">prepare_outputs(chunk_cfg)</text>

  <rect x="566" y="305" width="236" height="22" fill="#dcfce7" stroke="#86efac" stroke-width="1" rx="2"/>
  <text x="574" y="320" font-size="10" fill="#14532d">run_plugins(chunk_cfg, …)</text>

  <rect x="566" y="332" width="236" height="22" fill="#ffedd5" stroke="#fed7aa" stroke-width="1" rx="2"/>
  <text x="574" y="347" font-size="10" fill="#9a3412">merge_outputs(chunk_cfg)</text>

  <text x="684" y="375" font-size="20" fill="#94a3b8" text-anchor="middle">▼</text>
  <rect x="566" y="382" width="236" height="22" fill="#f1f5f9" stroke="#cbd5e1" stroke-width="1" rx="2"/>
  <text x="574" y="397" font-size="10" fill="#334155">chunk_out_dir/pdb.parquet</text>
  <rect x="566" y="408" width="236" height="22" fill="#f1f5f9" stroke="#cbd5e1" stroke-width="1" rx="2"/>
  <text x="574" y="423" font-size="10" fill="#334155">chunk_out_dir/plugin_status.parquet</text>
  <rect x="566" y="434" width="236" height="22" fill="#f1f5f9" stroke="#cbd5e1" stroke-width="1" rx="2"/>
  <text x="574" y="449" font-size="10" fill="#334155">chunk_out_dir/bad_files.parquet</text>
  <rect x="566" y="458" width="236" height="22" fill="#f1f5f9" stroke="#cbd5e1" stroke-width="1" rx="2"/>
  <text x="574" y="473" font-size="10" fill="#334155">chunk_out_dir/run_metadata.json</text>

  <!-- worker box B (abbreviated) -->
  <rect x="832" y="256" width="256" height="230" fill="#e0f2fe" stroke="#38bdf8" stroke-width="1" rx="4"/>
  <text x="960" y="273" font-size="10" font-weight="bold" fill="#0369a1" text-anchor="middle">chunk_002 … chunk_N</text>
  <text x="960" y="360" font-size="28" fill="#94a3b8" text-anchor="middle">⋯</text>
  <text x="960" y="390" font-size="10" fill="#64748b" text-anchor="middle">(same structure as chunk_001)</text>
  <text x="960" y="410" font-size="10" fill="#64748b" text-anchor="middle">all run in tempfile.TemporaryDirectory</text>
  <text x="960" y="430" font-size="10" fill="#64748b" text-anchor="middle">cleaned up after merge</text>

  <!-- MERGE dataset block -->
  <rect x="544" y="508" width="560" height="64" fill="#ffedd5" stroke="#ea580c" stroke-width="1.5" rx="6"/>
  <text x="556" y="526" font-size="11" font-weight="bold" fill="#9a3412">merge_dataset_outputs([chunk_out_dirs], out_dir)</text>
  <rect x="556" y="532" width="536" height="34" fill="#fff7ed" stroke="#fed7aa" stroke-width="1" rx="3"/>
  <text x="564" y="546" font-size="10" fill="#7c2d12">validate merge_compatibility across chunks  →  STACK pdb frames  →  concat status + bad</text>
  <text x="564" y="560" font-size="10" fill="#7c2d12">write  out_dir/pdb.parquet  plugin_status.parquet  bad_files.parquet  dataset_metadata.json</text>

  <!-- DATASET ANALYSIS optional -->
  <rect x="544" y="580" width="560" height="60" fill="#ede9fe" stroke="#7c3aed" stroke-width="1.5" stroke-dasharray="5,3" rx="6"/>
  <text x="556" y="598" font-size="11" font-weight="bold" fill="#5b21b6">analyze_dataset_outputs(out_dir)  [optional, post-merge only]</text>
  <rect x="556" y="604" width="536" height="30" fill="#f5f3ff" stroke="#c4b5fd" stroke-width="1" rx="3"/>
  <text x="564" y="617" font-size="10" fill="#4c1d95">reads fully merged pdb.parquet  →  dataset_calculation plugins  →  dataset.parquet</text>
  <text x="564" y="631" font-size="10" fill="#4c1d95">cannot run per-chunk: needs complete population for entropy, summaries, etc.</text>

  <!-- Arrows col 2 -->
  <line x1="824" y1="224" x2="824" y2="232" stroke="#0369a1" stroke-width="2" marker-end="url(#arr)"/>
  <line x1="824" y1="500" x2="824" y2="508" stroke="#ea580c" stroke-width="2" marker-end="url(#arr-orange)"/>
  <line x1="824" y1="572" x2="824" y2="580" stroke="#7c3aed" stroke-width="2" stroke-dasharray="4,3" marker-end="url(#arr-purple)"/>

  <!-- ═══════════════════════════════════════════════════════════════════════ -->
  <!-- COLUMN 3: Planned Chunked Run -->
  <!-- ═══════════════════════════════════════════════════════════════════════ -->
  <rect x="1120" y="106" width="560" height="26" fill="#1e293b" rx="4"/>
  <text x="1400" y="124" font-size="13" font-weight="bold" fill="white" text-anchor="middle">③ Planned Run   plan + run_pipeline + merge</text>

  <!-- PLAN -->
  <rect x="1120" y="138" width="560" height="132" fill="#fef9c3" stroke="#ca8a04" stroke-width="1.5" rx="6"/>
  <text x="1132" y="156" font-size="11" font-weight="bold" fill="#713f12">plan_chunked_pipeline(cfg, chunk_size, plan_dir)</text>

  <rect x="1132" y="162" width="536" height="22" fill="#fefce8" stroke="#fde68a" stroke-width="1" rx="3"/>
  <text x="1140" y="177" font-size="10" fill="#713f12">discover_inputs  →  chunk_input_paths(paths, chunk_size)</text>

  <rect x="1132" y="189" width="536" height="22" fill="#fefce8" stroke="#fde68a" stroke-width="1" rx="3"/>
  <text x="1140" y="204" font-size="10" fill="#713f12">for each chunk:  prepare_chunk_input_dir()  +  write  chunk_N/config.yaml</text>

  <rect x="1132" y="216" width="536" height="22" fill="#fefce8" stroke="#fde68a" stroke-width="1" rx="3"/>
  <text x="1140" y="231" font-size="10" fill="#713f12">write  plan_dir/chunk_plan.json  (all paths, configs, counts)</text>

  <rect x="1132" y="243" width="536" height="22" fill="#fef9c3" stroke="#fde68a" stroke-width="1" rx="3"/>
  <text x="1140" y="258" font-size="10" fill="#92400e" font-weight="bold">→  returns:  chunks=N, chunk_size=K, planned_structures=M</text>

  <!-- Offline execution -->
  <rect x="1120" y="278" width="560" height="80" fill="#f3f4f6" stroke="#9ca3af" stroke-width="1.5" stroke-dasharray="5,3" rx="6"/>
  <text x="1132" y="296" font-size="11" font-weight="bold" fill="#374151">Offline / Cluster Execution  (user-managed)</text>
  <rect x="1132" y="302" width="536" height="22" fill="#e5e7eb" stroke="#9ca3af" stroke-width="1" rx="3"/>
  <text x="1140" y="317" font-size="10" fill="#1f2937">for each chunk:  minimum-atw run --config chunk_N/config.yaml</text>
  <rect x="1132" y="329" width="536" height="22" fill="#e5e7eb" stroke="#9ca3af" stroke-width="1" rx="3"/>
  <text x="1140" y="344" font-size="10" fill="#1f2937">or:  python -c "run_pipeline(Config.from_yaml('chunk_N/config.yaml'))"</text>

  <!-- MERGE planned -->
  <rect x="1120" y="366" width="560" height="96" fill="#ffedd5" stroke="#ea580c" stroke-width="1.5" rx="6"/>
  <text x="1132" y="384" font-size="11" font-weight="bold" fill="#9a3412">merge_planned_chunks(plan_dir, out_dir)</text>

  <rect x="1132" y="390" width="536" height="22" fill="#fff7ed" stroke="#fed7aa" stroke-width="1" rx="3"/>
  <text x="1140" y="405" font-size="10" fill="#7c2d12">read chunk_plan.json  →  Config(**source_config)  →  resolve chunk_out_dirs</text>

  <rect x="1132" y="417" width="536" height="22" fill="#fff7ed" stroke="#fed7aa" stroke-width="1" rx="3"/>
  <text x="1140" y="432" font-size="10" fill="#7c2d12">merge_dataset_outputs(chunk_out_dirs, out_dir)  →  STACK  →  validate compatibility</text>

  <rect x="1132" y="444" width="536" height="12" fill="#fff7ed" stroke="none" rx="0"/>
  <text x="1140" y="454" font-size="10" fill="#7c2d12">write  out_dir/pdb.parquet  plugin_status.parquet  bad_files.parquet  dataset_metadata.json</text>

  <!-- DATASET ANALYSIS planned -->
  <rect x="1120" y="470" width="560" height="60" fill="#ede9fe" stroke="#7c3aed" stroke-width="1.5" stroke-dasharray="5,3" rx="6"/>
  <text x="1132" y="488" font-size="11" font-weight="bold" fill="#5b21b6">analyze_dataset_outputs(out_dir)  [optional, post-merge only]</text>
  <rect x="1132" y="494" width="536" height="30" fill="#f5f3ff" stroke="#c4b5fd" stroke-width="1" rx="3"/>
  <text x="1140" y="507" font-size="10" fill="#4c1d95">same as other modes — always runs on fully merged table</text>
  <text x="1140" y="521" font-size="10" fill="#4c1d95">triggered by  should_run_post_merge_dataset_analyses()  on source Config</text>

  <!-- Arrows col 3 -->
  <line x1="1400" y1="270" x2="1400" y2="278" stroke="#555" stroke-width="2" marker-end="url(#arr)"/>
  <line x1="1400" y1="358" x2="1400" y2="366" stroke="#ea580c" stroke-width="2" marker-end="url(#arr-orange)"/>
  <line x1="1400" y1="462" x2="1400" y2="470" stroke="#7c3aed" stroke-width="2" stroke-dasharray="4,3" marker-end="url(#arr-purple)"/>

  <!-- ═══════════════════════════════════════════════════════════════════════ -->
  <!-- FLEXIBILITY PANEL -->
  <!-- ═══════════════════════════════════════════════════════════════════════ -->
  <rect x="18" y="800" width="1662" height="28" fill="#1e293b" rx="4"/>
  <text x="849" y="819" font-size="13" font-weight="bold" fill="white" text-anchor="middle">Flexibility: What Can Run Independently, Incrementally, or Out of Order?</text>

  <!-- Left flexibility box -->
  <rect x="18" y="834" width="530" height="320" fill="#f0fdf4" stroke="#16a34a" stroke-width="1.5" rx="6"/>
  <text x="30" y="852" font-size="11" font-weight="bold" fill="#166534">Incremental Plugin Execution</text>

  <rect x="30" y="858" width="506" height="50" fill="#dcfce7" stroke="#86efac" stroke-width="1" rx="3"/>
  <text x="38" y="873" font-size="10" fill="#14532d" font-weight="bold">prepare_outputs() is a cache boundary</text>
  <text x="38" y="887" font-size="10" fill="#14532d">Once prepared structures exist in _prepared/, you can call run_plugin() / run_plugins()</text>
  <text x="38" y="899" font-size="10" fill="#14532d">repeatedly without re-preparing. Add new plugins to cfg and re-run only the new ones.</text>

  <rect x="30" y="913" width="506" height="50" fill="#dcfce7" stroke="#86efac" stroke-width="1" rx="3"/>
  <text x="38" y="928" font-size="10" fill="#14532d" font-weight="bold">Checkpoint recovery</text>
  <text x="38" y="942" font-size="10" fill="#14532d">cfg.checkpoint_enabled=True:  manifest_checkpoint.jsonl tracks completed structures.</text>
  <text x="38" y="956" font-size="10" fill="#14532d">Crash during prepare?  Resume from last completed structure. Same for plugin execution.</text>

  <rect x="30" y="968" width="506" height="50" fill="#dcfce7" stroke="#86efac" stroke-width="1" rx="3"/>
  <text x="38" y="983" font-size="10" fill="#14532d" font-weight="bold">Plugin execution order</text>
  <text x="38" y="997" font-size="10" fill="#14532d">Plugins run sequentially in configured order. Each writes to its own</text>
  <text x="38" y="1011" font-size="10" fill="#14532d">_plugins/&lt;name&gt;/pdb.parquet, then all are merged in one final pass.</text>

  <rect x="30" y="1023" width="506" height="50" fill="#dcfce7" stroke="#86efac" stroke-width="1" rx="3"/>
  <text x="38" y="1038" font-size="10" fill="#14532d" font-weight="bold">Separate prepare &amp; execute via CLI</text>
  <text x="38" y="1052" font-size="10" fill="#14532d">minimum-atw prepare   →   only runs prepare_outputs()</text>
  <text x="38" y="1066" font-size="10" fill="#14532d">minimum-atw execute   →   only runs run_plugins() + merge_outputs()</text>

  <rect x="30" y="1078" width="506" height="62" fill="#dcfce7" stroke="#86efac" stroke-width="1" rx="3"/>
  <text x="38" y="1093" font-size="10" fill="#14532d" font-weight="bold">Merge is always the last PDB step</text>
  <text x="38" y="1107" font-size="10" fill="#14532d">merge_outputs() performs LEFT JOIN: base pdb ← plugin_1 ← plugin_2 ← …</text>
  <text x="38" y="1121" font-size="10" fill="#14532d">merge_dataset_outputs() performs STACK: combines same-schema outputs from chunks.</text>
  <text x="38" y="1135" font-size="10" fill="#14532d">These are two distinct operations — LEFT JOIN ≠ STACK.</text>

  <!-- Middle flexibility box -->
  <rect x="562" y="834" width="560" height="320" fill="#fef9c3" stroke="#ca8a04" stroke-width="1.5" rx="6"/>
  <text x="574" y="852" font-size="11" font-weight="bold" fill="#713f12">Dataset Analysis: When &amp; Why Only After Full Merge</text>

  <rect x="574" y="858" width="536" height="62" fill="#fefce8" stroke="#fde68a" stroke-width="1" rx="3"/>
  <text x="582" y="873" font-size="10" fill="#713f12" font-weight="bold">Q: Can I run dataset analysis before or during merge?</text>
  <text x="582" y="887" font-size="10" fill="#92400e">No. analyze_dataset_outputs() reads the complete merged pdb.parquet.</text>
  <text x="582" y="901" font-size="10" fill="#92400e">Dataset-level statistics (entropy, interface summaries, annotations) require the</text>
  <text x="582" y="915" font-size="10" fill="#92400e">full population of structures to produce meaningful results.</text>

  <rect x="574" y="925" width="536" height="50" fill="#fefce8" stroke="#fde68a" stroke-width="1" rx="3"/>
  <text x="582" y="940" font-size="10" fill="#713f12" font-weight="bold">Q: Can I run dataset analysis on each chunk and then merge?</text>
  <text x="582" y="954" font-size="10" fill="#92400e">No — dataset.parquet rows are not simply stackable (e.g. entropy per-chunk ≠ entropy</text>
  <text x="582" y="968" font-size="10" fill="#92400e">over full dataset). Always merge first, then analyze once on merged output.</text>

  <rect x="574" y="980" width="536" height="50" fill="#fefce8" stroke="#fde68a" stroke-width="1" rx="3"/>
  <text x="582" y="995" font-size="10" fill="#713f12" font-weight="bold">Q: Can I re-run dataset analysis with different params without re-running pipeline?</text>
  <text x="582" y="1009" font-size="10" fill="#92400e">Yes. Call analyze_dataset_outputs(out_dir, dataset_analyses=...) directly.</text>
  <text x="582" y="1023" font-size="10" fill="#92400e">It only reads the existing merged pdb.parquet — no structure re-processing.</text>

  <rect x="574" y="1035" width="536" height="50" fill="#fefce8" stroke="#fde68a" stroke-width="1" rx="3"/>
  <text x="582" y="1050" font-size="10" fill="#713f12" font-weight="bold">Q: When does analyze_dataset_outputs run automatically?</text>
  <text x="582" y="1064" font-size="10" fill="#92400e">When cfg.dataset_analyses is non-empty and</text>
  <text x="582" y="1078" font-size="10" fill="#92400e">cfg.should_run_post_merge_dataset_analyses() returns True.</text>
  <text x="582" y="1092" font-size="10" fill="#92400e">Triggered at end of run_pipeline(), run_chunked_pipeline(), merge_planned_chunks().</text>

  <rect x="574" y="1090" width="536" height="58" fill="#fef9c3" stroke="#fde68a" stroke-width="1" rx="3"/>
  <text x="582" y="1105" font-size="10" fill="#713f12" font-weight="bold">Dataset annotations</text>
  <text x="582" y="1119" font-size="10" fill="#92400e">cfg.dataset_annotations: dict mapping structure path  →  metadata columns</text>
  <text x="582" y="1133" font-size="10" fill="#92400e">Merged into dataset.parquet. Does not affect pdb.parquet.</text>

  <!-- Right flexibility box -->
  <rect x="1136" y="834" width="544" height="320" fill="#ede9fe" stroke="#7c3aed" stroke-width="1.5" rx="6"/>
  <text x="1148" y="852" font-size="11" font-weight="bold" fill="#5b21b6">Data Model Invariants &amp; Key Functions</text>

  <rect x="1148" y="858" width="520" height="62" fill="#f5f3ff" stroke="#c4b5fd" stroke-width="1" rx="3"/>
  <text x="1156" y="873" font-size="10" fill="#4c1d95" font-weight="bold">Identity keys (merge anchors)</text>
  <text x="1156" y="887" font-size="10" fill="#4c1d95">grain=structure:   path, assembly_id</text>
  <text x="1156" y="901" font-size="10" fill="#4c1d95">grain=chain:       path, assembly_id, chain_id</text>
  <text x="1156" y="915" font-size="10" fill="#4c1d95">grain=role:        path, assembly_id, role      grain=interface:  path, assembly_id, pair</text>

  <rect x="1148" y="925" width="520" height="62" fill="#f5f3ff" stroke="#c4b5fd" stroke-width="1" rx="3"/>
  <text x="1156" y="940" font-size="10" fill="#4c1d95" font-weight="bold">Column namespacing via prefix</text>
  <text x="1156" y="954" font-size="10" fill="#4c1d95">Every plugin declares  name  and  prefix.  All output columns: {prefix}__{col}</text>
  <text x="1156" y="968" font-size="10" fill="#4c1d95">Enforces no collision between plugins at registry validation time.</text>
  <text x="1156" y="982" font-size="10" fill="#4c1d95">prefix_row(prefix, row_dict)  wraps yield  dict before writing.</text>

  <rect x="1148" y="992" width="520" height="50" fill="#f5f3ff" stroke="#c4b5fd" stroke-width="1" rx="3"/>
  <text x="1156" y="1007" font-size="10" fill="#4c1d95" font-weight="bold">TableBuffer / FrameBuffer  (memory pressure)</text>
  <text x="1156" y="1021" font-size="10" fill="#4c1d95">BufferedMode: accumulates rows in memory, spills to disk when threshold hit.</text>
  <text x="1156" y="1035" font-size="10" fill="#4c1d95">Checkpointed mode: append parquet after each structure instead.</text>

  <rect x="1148" y="1047" width="520" height="50" fill="#f5f3ff" stroke="#c4b5fd" stroke-width="1" rx="3"/>
  <text x="1156" y="1062" font-size="10" fill="#4c1d95" font-weight="bold">merge_table_frames  vs  stack_table_frames</text>
  <text x="1156" y="1076" font-size="10" fill="#4c1d95">merge_table_frames:  LEFT JOIN — adds plugin columns alongside base rows.</text>
  <text x="1156" y="1090" font-size="10" fill="#4c1d95">stack_table_frames:  UNION — concatenates disjoint-path chunks row-wise.</text>

  <rect x="1148" y="1102" width="520" height="48" fill="#f5f3ff" stroke="#c4b5fd" stroke-width="1" rx="3"/>
  <text x="1156" y="1117" font-size="10" fill="#4c1d95" font-weight="bold">merge_compatibility validation</text>
  <text x="1156" y="1131" font-size="10" fill="#4c1d95">Config.merge_compatibility() produces a fingerprint (roles, interface_pairs, assembly_id,</text>
  <text x="1156" y="1145" font-size="10" fill="#4c1d95">plugins). merge_dataset_outputs() rejects sources with mismatched fingerprints.</text>

  <!-- Footer -->
  <rect x="0" y="1162" width="1700" height="18" fill="#1e293b"/>
  <text x="850" y="1175" font-size="10" fill="#94a3b8" text-anchor="middle">minimum_atomworks runtime — Prepare is cached · Execute is incremental · Merge is deterministic · Dataset analysis always runs post-merge</text>
</svg>
