<svg xmlns="http://www.w3.org/2000/svg" width="1280" height="900" viewBox="0 0 1280 900" role="img" aria-labelledby="title desc">
  <title id="title">minimum_atomworks Architecture Overview</title>
  <desc id="desc">Three-layer architecture: core orchestration, runtime execution, plugin extensibility.</desc>
  <defs>
    <marker id="arrow" viewBox="0 0 10 10" refX="9" refY="5" markerWidth="8" markerHeight="8" orient="auto-start-reverse">
      <path d="M 0 0 L 10 5 L 0 10 z" fill="#1f2f3a"/>
    </marker>
    <style>
      .bg { fill: #f6f7f3; }
      .title { font: 700 32px Helvetica, Arial, sans-serif; fill: #15202a; }
      .subtitle { font: 400 14px Helvetica, Arial, sans-serif; fill: #5a6976; }
      .box { stroke-width: 2.2; rx: 12; ry: 12; }
      .public { fill: #fffef9; stroke: #1f2f3a; stroke-width: 3; }
      .core { fill: #e8f1ff; stroke: #2e5c8a; stroke-width: 2.2; }
      .runtime { fill: #e8f5e9; stroke: #2d6e4a; stroke-width: 2.2; }
      .plugins { fill: #fff3e0; stroke: #8b5a2b; stroke-width: 2.2; }
      .support { fill: #f3e5f5; stroke: #5a3e7f; stroke-width: 2; }
      .label { font: 700 18px Helvetica, Arial, sans-serif; fill: #15202a; }
      .label-sm { font: 700 16px Helvetica, Arial, sans-serif; fill: #15202a; }
      .body { font: 400 14px Helvetica, Arial, sans-serif; fill: #233240; }
      .small { font: 400 13px Helvetica, Arial, sans-serif; fill: #5a6976; }
      .line { stroke: #1f2f3a; stroke-width: 2.5; fill: none; marker-end: url(#arrow); }
      .soft { stroke: #5a6976; stroke-width: 2; fill: none; marker-end: url(#arrow); stroke-dasharray: 5,5; }
    </style>
  </defs>

  <rect class="bg" x="0" y="0" width="1280" height="900"/>
  <text class="title" x="60" y="55">minimum_atomworks: Layered Architecture</text>
  <text class="subtitle" x="60" y="75">Three-layer design: Core (what), Runtime (how), Plugins (extensions)</text>

  <!-- LAYER 1: PUBLIC SURFACE -->
  <rect class="box public" x="100" y="100" width="1080" height="90"/>
  <text class="label" x="130" y="135">Layer 0: Public Surface</text>
  <text class="body" x="130" y="162">cli.py (entry) → Config (Pydantic) → pipeline functions: run | prepare | run_plugin | merge | merge_datasets | analyze_dataset</text>

  <!-- LAYER 2: CORE -->
  <g>
    <text class="label" x="60" y="245">Layer 1: Core (Q: What does the pipeline mean?)</text>
    
    <rect class="box core" x="100" y="270" width="260" height="160"/>
    <text class="label-sm" x="120" y="295">config.py</text>
    <text class="small" x="120" y="318">• Pydantic Config</text>
    <text class="small" x="120" y="334">• Assembly ID, roles</text>
    <text class="small" x="120" y="350">• Interface pairs</text>
    <text class="small" x="120" y="366">• Plugin/manip list</text>
    <text class="small" x="120" y="382">• Dataset analysis</text>
    <text class="small" x="120" y="398">• Extension classes</text>

    <rect class="box core" x="420" y="270" width="260" height="160"/>
    <text class="label-sm" x="440" y="295">tables.py</text>
    <text class="small" x="440" y="318">• TABLE_NAMES</text>
    <text class="small" x="440" y="334">• KEY_COLS</text>
    <text class="small" x="440" y="350">• read/write parquet</text>
    <text class="small" x="440" y="366">• merge_table_frames</text>
    <text class="small" x="440" y="382">• Schema validation</text>

    <rect class="box core" x="740" y="270" width="260" height="160"/>
    <text class="label-sm" x="760" y="295">pipeline.py</text>
    <text class="small" x="760" y="318">• Orchestration</text>
    <text class="small" x="760" y="334">• prepare_outputs()</text>
    <text class="small" x="760" y="350">• run_plugin()</text>
    <text class="small" x="760" y="366">• merge_outputs()</text>
    <text class="small" x="760" y="382">• run_pipeline()</text>

    <rect class="box core" x="1060" y="270" width="120" height="160"/>
    <text class="label-sm" x="1070" y="295">registry.py</text>
    <text class="small" x="1070" y="318">• Load plugins</text>
    <text class="small" x="1070" y="334">• Load mutations</text>
    <text class="small" x="1070" y="350">• Entry points</text>
  </g>

  <!-- LAYER 3: RUNTIME -->
  <g>
    <text class="label" x="60" y="500">Layer 2: Runtime (Q: How do we execute efficiently?)</text>

    <rect class="box runtime" x="100" y="525" width="320" height="150"/>
    <text class="label-sm" x="120" y="550">workspace.py</text>
    <text class="small" x="120" y="573">• Workspace layout</text>
    <text class="small" x="120" y="589">• _prepared/</text>
    <text class="small" x="120" y="605">• _plugins/</text>
    <text class="small" x="120" y="621">• File discovery</text>
    <text class="small" x="120" y="637">• Symlinks/context</text>

    <rect class="box runtime" x="480" y="525" width="320" height="150"/>
    <text class="label-sm" x="500" y="550">stage_buffer.py</text>
    <text class="small" x="500" y="573">• TableBuffer: row limit</text>
    <text class="small" x="500" y="589">• Temp spill to disk</text>
    <text class="small" x="500" y="605">• FrameBuffer: status/bad</text>
    <text class="small" x="500" y="621">• Reduces memory peak</text>

    <rect class="box runtime" x="860" y="525" width="320" height="150"/>
    <text class="label-sm" x="880" y="550">chunked.py</text>
    <text class="small" x="880" y="573">• plan_chunked()</text>
    <text class="small" x="880" y="589">• merge_planned_chunks()</text>
    <text class="small" x="880" y="605">• Scheduler integration</text>
    <text class="small" x="880" y="621">• Chunk config templating</text>
  </g>

  <!-- LAYER 4: PLUGINS -->
  <g>
    <text class="label" x="60" y="750">Layer 3: Plugins (Q: What extensions do users need?)</text>

    <rect class="box plugins" x="100" y="775" width="180" height="90"/>
    <text class="label-sm" x="115" y="800">base.py</text>
    <text class="small" x="115" y="820">BasePlugin</text>
    <text class="small" x="115" y="835">Context</text>

    <rect class="box plugins" x="330" y="775" width="180" height="90"/>
    <text class="label-sm" x="345" y="800">manipulation/</text>
    <text class="small" x="345" y="820">center_on_origin</text>
    <text class="small" x="345" y="835">superimpose_homology</text>

    <rect class="box plugins" x="560" y="775" width="180" height="90"/>
    <text class="label-sm" x="575" y="800">structure_analysis/</text>
    <text class="small" x="575" y="820">identity, chain_stats</text>
    <text class="small" x="575" y="835">role_sequences</text>

    <rect class="box plugins" x="790" y="775" width="180" height="90"/>
    <text class="label-sm" x="805" y="800">interface_analysis/</text>
    <text class="small" x="805" y="820">interface_contacts</text>
    <text class="small" x="805" y="835">rosetta_interface</text>

    <rect class="box plugins" x="1020" y="775" width="160" height="90"/>
    <text class="label-sm" x="1030" y="800">dataset_analysis/</text>
    <text class="small" x="1030" y="820">annotations</text>
    <text class="small" x="1030" y="835">interface_summary</text>
  </g>

  <!-- DEPENDENCIES -->
  <path class="line" d="M 230 190 L 230 270"/>
  <path class="line" d="M 550 190 L 550 270"/>
  <path class="line" d="M 870 190 L 870 270"/>
  
  <path class="line" d="M 230 430 L 230 525"/>
  <path class="line" d="M 550 430 L 550 525"/>
  <path class="line" d="M 870 430 L 870 525"/>
  
  <path class="soft" d="M 230 675 L 190 775"/>
  <path class="soft" d="M 550 675 L 410 775"/>
  <path class="soft" d="M 870 675 L 680 775"/>

  <!-- LEGEND -->
  <text class="small" x="60" y="885">Design Rule: Core defines semantics (schema, config), Runtime enables scale (buffering, chunking), Plugins provide domain logic (what data to extract).</text>
</svg>
